# xmcd
# 
# Track frame offsets:
#     150
#     12339
#     28183
#     41660
#     57302
#     72779
#     86224
#     102638
#     115627
#     128169
#     139607
#     156304
# 
# Disc length: 2368
# 
# Revision: 1
# Processed by: cddbd v1.5.2PL0 Copyright (c) Steve Scherf et al.
# Submitted via: BonkEnc v1.0beta2
# 
DISCID=a6093e0c
DTITLE=The Blue Van - Dear Independence
DYEAR=2007
DGENRE=Alternative
TTITLE0=The Odyssey
TTITLE1=Don't Leave Me Blue
TTITLE2=Independence
TTITLE3=The Poet Tree
TTITLE4=Goldmind
TTITLE5=Mementarily Sane
TTITLE6=The Scent Of Seasons
TTITLE7=The Time Is Right
TTITLE8=Keep Me Running
TTITLE9=Elephant Man
TTITLE10=Rico
TTITLE11=White Dominos
EXTD=
EXTT0=
EXTT1=
EXTT2=
EXTT3=
EXTT4=
EXTT5=
EXTT6=
EXTT7=
EXTT8=
EXTT9=
EXTT10=
EXTT11=
PLAYORDER=
